# xmcd CD database file
#
# Track frame offsets:
#	150
#	15609
#	32648
#	49888
#	63190
#	72259
#	84454
#	101408
#	119950
#
# Disc length: 1842 seconds
#
# Revision: 0
# Processed by: cddbd v1.5.2PL0 Copyright (c) Steve Scherf et al.
# Submitted via: CDex 1.51
#
DISCID=76073009
DTITLE=Rieser Swing Jazz Band - Gruuf
DYEAR=1900
DGENRE=Jazz
TTITLE0=Good Times
TTITLE1=Eye To Eye
TTITLE2=In The Mood
TTITLE3=Watermelon man
TTITLE4=Cute
TTITLE5=One For Amy
TTITLE6=C-Jam Blues
TTITLE7=Night Train
TTITLE8=St. Louis Blues
EXTD=
EXTT0=
EXTT1=
EXTT2=
EXTT3=
EXTT4=
EXTT5=
EXTT6=
EXTT7=
EXTT8=
PLAYORDER=
